<?xml version="1.0" encoding="UTF-8" standalone="no"?>
<!DOCTYPE svg PUBLIC "-//W3C//DTD SVG 1.1//EN" "http://www.w3.org/Graphics/SVG/1.1/DTD/svg11.dtd">
<svg width="100%" height="100%" viewBox="0 0 1313 221" version="1.1" xmlns="http://www.w3.org/2000/svg" xmlns:xlink="http://www.w3.org/1999/xlink" xml:space="preserve" xmlns:serif="http://www.serif.com/" style="fill-rule:evenodd;clip-rule:evenodd;stroke-linecap:round;stroke-linejoin:round;stroke-miterlimit:1.5;">
    <g transform="matrix(1,0,0,1,-107.352277,-321.98131)">
        <g transform="matrix(1,0,0,1,-133.671586,94.171762)">
            <g transform="matrix(0.976444,0,0,0.976444,-38.999203,37.739347)">
                <g transform="matrix(1,0,0,1,9.999726,-33.361762)">
                    <g transform="matrix(1,0,0,1,541.942,414.834)">
                        <text x="0px" y="0px" style="font-family:'Questrial-Regular', 'Questrial';font-size:224px;">K<tspan x="133.504px " y="0px ">a</tspan>mar 320</text>
                    </g>
                </g>
            </g>
            <g transform="matrix(1,0,0,1,139.171586,-103.171762)">
                <g transform="matrix(0.932999,0,0,1.268183,-19.980269,-103.225424)">
                    <path d="M150,509.3C148.743,493.236 146.23,461.108 144.512,437C142.79,412.817 138.749,377.917 139.664,364.2C139.975,359.531 145.387,355.489 150,354.7C164.806,352.167 202.264,349 228.5,349C257.667,349 307.529,348.2 325,354.7C335.724,358.69 333.328,376.558 333.328,388C333.328,412.183 328.555,479.583 325,499.8C324.071,505.086 317.367,509.3 312,509.3C302,509.3 273.833,503.742 265,499.8C260.321,497.712 259.434,490.755 259,485.65C257.5,468.017 259.583,410.275 256,394C254.606,387.669 243.978,388.244 237.5,388C228.667,387.667 210.083,390.667 203,392C200.07,392.552 195.223,393.027 195,396C194.167,407.108 197.5,448.317 198,458.65C198.01,458.866 197.983,457.784 198,458C198.333,462.358 199.333,476.249 200,484.8C200.637,492.971 201.546,503.862 202,509.307" style="fill-opacity:0;stroke:black;stroke-width:15px;"/>
                </g>
                <g transform="matrix(-0.245938,0.302425,-0.481395,-0.666694,389.939185,715.351468)">
                    <path d="M168,432C169.667,432.667 171.333,433.333 173,434" style="fill-opacity:0;stroke:black;stroke-width:26.97px;"/>
                </g>
            </g>
        </g>
    </g>
</svg>
